<svg width="18" height="19" viewBox="0 0 18 19" fill="none" xmlns="http://www.w3.org/2000/svg">
    <path d="M8.08903 14.5838C7.88903 14.8248 7.69903 15.0708 7.49503 15.3068C7.39802 15.4413 7.27284 15.5529 7.12821 15.634C6.98359 15.7151 6.82301 15.7636 6.65769 15.7761C6.49238 15.7887 6.32631 15.765 6.17109 15.7068C6.01587 15.6485 5.87524 15.5571 5.75903 15.4388C5.17636 14.9382 4.59469 14.4362 4.01403 13.9328C3.87884 13.8364 3.7665 13.7114 3.68493 13.5668C3.60335 13.4221 3.55455 13.2613 3.54196 13.0957C3.52937 12.9301 3.5533 12.7638 3.61206 12.6085C3.67082 12.4531 3.76298 12.3126 3.88203 12.1968C4.08203 11.9678 4.29103 11.7488 4.49603 11.5258L4.45903 11.4708C4.37703 11.4708 4.29503 11.4708 4.21303 11.4778C3.15003 11.5558 2.08603 11.6368 1.02303 11.7098C0.875267 11.7232 0.726306 11.7104 0.583027 11.6718C0.4689 11.639 0.363304 11.5817 0.273612 11.5039C0.183919 11.4261 0.112292 11.3296 0.0637293 11.2213C0.0151667 11.1129 -0.0091607 10.9953 -0.00755476 10.8765C-0.00594882 10.7578 0.0215518 10.6408 0.0730273 10.5338C0.548027 9.34084 1.02503 8.14784 1.54203 6.97284C1.66934 6.66973 1.88142 6.40981 2.15281 6.22427C2.42421 6.03872 2.74338 5.93545 3.07203 5.92684C4.16703 5.84484 5.26103 5.76084 6.35603 5.68784C6.42868 5.68862 6.49998 5.66811 6.56111 5.62884C6.62224 5.58956 6.67054 5.53325 6.70003 5.46684C7.23127 4.45033 7.92166 3.52532 8.74503 2.72684C10.0074 1.54155 11.6335 0.818014 13.359 0.673839C14.3555 0.557475 15.3618 0.554121 16.359 0.663839C16.791 0.716839 16.922 0.825839 17.031 1.25584C17.4418 2.74121 17.5617 4.29198 17.384 5.82284C17.1364 7.56299 16.2949 9.16406 15.002 10.3548C14.592 10.7548 14.148 11.1158 13.702 11.4768C13.639 11.5195 13.5894 11.5792 13.5592 11.6489C13.5289 11.7187 13.5191 11.7957 13.531 11.8708C13.618 12.9488 13.689 14.0288 13.776 15.1078C13.8247 15.48 13.7581 15.8581 13.5852 16.1913C13.4123 16.5244 13.1414 16.7965 12.809 16.9708C11.809 17.5638 10.809 18.1708 9.80903 18.7708C9.67874 18.8767 9.52032 18.9421 9.3533 18.959C9.18629 18.9759 9.01798 18.9435 8.86913 18.8659C8.72028 18.7883 8.59741 18.6688 8.51565 18.5222C8.43389 18.3756 8.39683 18.2083 8.40903 18.0408C8.32903 16.9848 8.25069 15.9292 8.17403 14.8738L8.15503 14.6198L8.08903 14.5838ZM14.434 5.09284C14.4137 4.8177 14.3122 4.55479 14.1423 4.33742C13.9724 4.12006 13.7418 3.95804 13.4797 3.87191C13.2176 3.78578 12.9358 3.77942 12.6701 3.85362C12.4044 3.92783 12.1667 4.07927 11.9872 4.28873C11.8076 4.4982 11.6943 4.75626 11.6616 5.0302C11.6289 5.30414 11.6783 5.58162 11.8035 5.82746C11.9287 6.0733 12.1241 6.27643 12.3649 6.41108C12.6057 6.54574 12.881 6.60587 13.156 6.58384C13.3383 6.57071 13.5162 6.52155 13.6794 6.43921C13.8426 6.35686 13.9878 6.24296 14.1067 6.10411C14.2255 5.96525 14.3157 5.80419 14.3719 5.63027C14.428 5.45634 14.4492 5.27299 14.434 5.09084V5.09284Z" fill="#FDEEEB"/>
</svg>
