<?xml version="1.0" encoding="UTF-8"?>
<svg id="Calque_1" data-name="Calque 1" xmlns="http://www.w3.org/2000/svg" version="1.1" xmlns:xlink="http://www.w3.org/1999/xlink" viewBox="0 0 814 463">
  <defs>
    <mask id="mask" x="178.2" y="42.59" width="28.86" height="12.21" maskUnits="userSpaceOnUse">
      <g id="mask0_4_1525" data-name="mask0 4 1525">
        <path d="M207.07,42.59h-28.86v12.21h28.86v-12.21Z" style="fill: #fff; stroke-width: 0px;"/>
      </g>
    </mask>
    <mask id="mask-1" x="178.2" y="42.59" width="28.86" height="12.21" maskUnits="userSpaceOnUse">
      <g id="mask1_4_1525" data-name="mask1 4 1525">
        <path d="M207.07,42.59h-28.86v12.21h28.86v-12.21Z" style="fill: #fff; stroke-width: 0px;"/>
      </g>
    </mask>
  </defs>
  <path d="M45.32,462.98c-5.68,0-11.32-.95-16.68-2.83l-25.57-8.92h-.72c-.23,0-.45-.04-.66-.13-.21-.09-.4-.21-.56-.37-.16-.16-.29-.35-.37-.56-.09-.21-.13-.43-.13-.66v-15.28h88.42c-3.12-1.27-5.78-3.44-7.66-6.23-1.88-2.79-2.88-6.08-2.88-9.45V17.72c0-4.49,1.79-8.8,4.97-11.97,3.18-3.17,7.49-4.96,11.98-4.95h624.21c2.22,0,4.43.44,6.48,1.29,2.05.85,3.92,2.1,5.5,3.67s2.82,3.44,3.67,5.49c.85,2.05,1.29,4.26,1.29,6.48v400.83c0,3.36-1,6.65-2.88,9.45-1.88,2.79-4.55,4.96-7.66,6.23h87.35v15.28c0,.23-.05.45-.13.66-.09.21-.21.4-.37.56-.16.16-.35.29-.56.37-.21.09-.43.13-.66.13h-.34c-2.09.75-16.01,5.73-24.86,8.89-4.88,1.74-10.02,2.64-15.2,2.64l-725.94.22h-.02Z" style="fill: #d3d3d3; stroke-width: 0px;"/>
  <path d="M714.85,25.93H100.27v386.82h614.58V25.93Z" style="fill: #fff; stroke-width: 0px;"/>
  <path d="M586.09,32.66h84.89c.2,0,.41.03.59.09.19.06.36.15.5.26.14.11.26.24.34.39.08.14.12.3.12.45v16.62c0,.16-.04.31-.12.45s-.19.27-.34.39c-.14.11-.32.2-.5.26-.19.06-.39.09-.59.09h-84.89c-.2,0-.41-.03-.59-.09-.19-.06-.36-.15-.5-.26-.14-.11-.26-.24-.34-.39s-.12-.3-.12-.45v-16.62c0-.16.04-.31.12-.45s.19-.28.34-.39c.14-.11.32-.2.5-.26.19-.06.39-.09.59-.09" style="fill: #d3d3d3; stroke-width: 0px;"/>
  <path d="M714.94,60.08H100.06v327.84h614.88V60.08Z" style="fill: #eee; stroke-width: 0px;"/>
  <path d="M158.99,271.81h70.03c.17,0,.33.03.49.1.15.06.3.16.41.28s.21.26.28.41c.06.16.1.32.1.49v17.93c0,.17-.03.33-.1.49-.06.16-.16.3-.28.42-.12.12-.26.21-.41.28-.16.06-.32.1-.49.1h-70.03c-.17,0-.33-.03-.49-.1-.16-.07-.3-.16-.42-.28-.12-.12-.21-.26-.28-.42-.06-.15-.1-.32-.1-.49v-17.93c0-.17.03-.33.1-.49.06-.16.16-.3.28-.42.12-.12.26-.21.42-.28.16-.07.32-.1.49-.1" style="fill: #d3d3d3; stroke-width: 0px;"/>
  <path d="M161.12,360.6c.68,0,1.34.2,1.9.58.56.38,1,.91,1.26,1.53.26.62.33,1.31.19,1.97-.13.66-.46,1.27-.93,1.75-.48.48-1.09.8-1.75.93-.66.13-1.35.06-1.97-.19-.62-.26-1.16-.7-1.53-1.26-.38-.56-.58-1.22-.58-1.9,0-.9.36-1.77,1-2.41.64-.64,1.51-1,2.41-1Z" style="fill: #eee; stroke-width: 0px;"/>
  <path d="M161.12,366.57c1.41,0,2.56-1.15,2.56-2.56s-1.15-2.56-2.56-2.56-2.56,1.15-2.56,2.56,1.15,2.56,2.56,2.56Z" style="fill: none; stroke: #c4c4c4; stroke-miterlimit: 10; stroke-width: 1.71px;"/>
  <path d="M171.37,362.31c.34,0,.67.1.95.29.28.19.5.45.63.77.13.31.16.65.1.99-.07.33-.23.64-.47.87-.24.24-.54.4-.87.47-.33.07-.67.03-.99-.1-.31-.13-.58-.35-.77-.63-.19-.28-.29-.61-.29-.95,0-.45.18-.89.5-1.21.32-.32.75-.5,1.21-.5Z" style="fill: #9b9b9b; stroke-width: 0px;"/>
  <path d="M181.62,362.31c.34,0,.67.1.95.29.28.19.5.45.63.77.13.31.16.65.1.99-.07.33-.23.64-.47.87-.24.24-.54.4-.87.47-.33.07-.67.03-.99-.1-.31-.13-.58-.35-.77-.63-.19-.28-.29-.61-.29-.95,0-.45.18-.89.5-1.21.32-.32.75-.5,1.21-.5Z" style="fill: #9b9b9b; stroke-width: 0px;"/>
  <path d="M165.39,39.59c1.52,0,3,.45,4.27,1.3,1.26.84,2.25,2.04,2.83,3.45.58,1.4.73,2.95.44,4.44-.3,1.49-1.03,2.86-2.1,3.93-1.07,1.07-2.44,1.81-3.93,2.1-1.49.3-3.04.14-4.44-.44-1.4-.58-2.6-1.57-3.45-2.83-.84-1.26-1.3-2.75-1.3-4.27,0-2.04.81-3.99,2.25-5.43,1.44-1.44,3.4-2.25,5.43-2.25Z" style="fill: #d3d3d3; stroke-width: 0px;"/>
  <g style="mask: url(#mask);">
    <g style="mask: url(#mask-1);">
      <path d="M182.77,44.92v.8h-1.72v5.37h-1.01v-5.37h-1.71v-.8h4.44ZM183.38,44.87c0-.17.06-.31.17-.42.12-.11.27-.17.46-.17s.35.06.46.17c.12.11.18.25.18.42s-.06.31-.18.41c-.12.1-.27.16-.46.16s-.35-.05-.46-.16c-.12-.1-.17-.24-.17-.41ZM184.51,46.27v4.82h-1v-4.82h1ZM188.48,46.21c.42,0,.79.1,1.12.3.33.2.59.48.78.86.19.37.28.81.28,1.31s-.09.95-.28,1.32c-.19.37-.45.66-.78.86-.33.2-.7.3-1.12.3s-.81-.11-1.12-.32c-.31-.22-.52-.5-.65-.86v1.12h-1v-6.47h1v2.77c.12-.36.34-.64.65-.86.31-.22.68-.32,1.12-.32ZM188.18,47.09c-.28,0-.53.07-.75.2-.22.13-.4.31-.52.56-.13.24-.19.52-.19.83s.06.6.19.84c.13.24.3.43.52.56.22.13.47.19.75.19.44,0,.8-.14,1.07-.42.27-.29.4-.68.4-1.17s-.13-.88-.4-1.16c-.27-.29-.62-.43-1.07-.43ZM193.55,46.21c.44,0,.81.11,1.12.32.31.22.53.5.66.86v-1.12h1v4.82h-1v-1.12c-.13.36-.35.64-.66.86-.31.22-.68.32-1.12.32s-.8-.1-1.13-.3c-.33-.2-.58-.48-.77-.86-.19-.37-.28-.81-.28-1.32s.09-.94.28-1.31c.19-.37.44-.66.77-.86.33-.2.71-.3,1.13-.3ZM193.86,47.09c-.44,0-.8.14-1.07.43-.26.28-.39.67-.39,1.16s.13.89.39,1.17c.27.28.62.42,1.07.42.28,0,.53-.06.75-.19.22-.13.4-.32.52-.56.13-.24.19-.52.19-.84s-.06-.59-.19-.83c-.13-.24-.3-.43-.52-.56-.22-.13-.47-.2-.75-.2ZM198.52,44.62v6.47h-1v-6.47h1ZM199.58,44.87c0-.17.06-.31.18-.42.12-.11.27-.17.46-.17s.35.06.46.17c.12.11.18.25.18.42s-.06.31-.18.41c-.12.1-.27.16-.46.16s-.35-.05-.46-.16c-.12-.1-.18-.24-.18-.41ZM200.72,46.27v4.82h-1v-4.82h1ZM204.66,51.09l-1.73-2.14v2.14h-1v-6.47h1v3.71l1.71-2.05h1.2l-2.1,2.4,2.15,2.42h-1.23Z" style="fill: #d3d3d3; stroke-width: 0px;"/>
    </g>
  </g>
  <path d="M279.4,183.87h-121.69v16.65h121.69v-16.65Z" style="fill: #d3d3d3; stroke-width: 0px;"/>
  <path d="M226.45,445.12h-68.75v16.65h68.75v-16.65Z" style="fill: #d3d3d3; stroke-width: 0px;"/>
  <path d="M301.6,159.11h-143.9v16.65h143.9v-16.65Z" style="fill: #d3d3d3; stroke-width: 0px;"/>
  <path d="M346.87,215.46h-189.16v8.54h189.16v-8.54Z" style="fill: #d3d3d3; stroke-width: 0px;"/>
  <path d="M209.37,43.01h-31.17v8.54h31.17v-8.54Z" style="fill: #d3d3d3; stroke-width: 0px;"/>
  <path d="M399.81,230.4h-242.11v8.54h242.11v-8.54Z" style="fill: #d3d3d3; stroke-width: 0px;"/>
  <path d="M252.5,245.34h-94.79v8.54h94.79v-8.54Z" style="fill: #d3d3d3; stroke-width: 0px;"/>
  <path d="M565.92,39.59h-141.34v8.54h141.34v-8.54Z" style="fill: #d3d3d3; stroke-width: 0px;"/>
  <path d="M458.19,122.38h194.68c1.04,0,2.04.41,2.78,1.15s1.15,1.74,1.15,2.78v192.79c0,1.04-.41,2.04-1.15,2.78s-1.74,1.15-2.78,1.15h-192.77c-1.04,0-2.04-.41-2.78-1.15s-1.15-1.74-1.15-2.78V124.4c0-.54.21-1.05.59-1.43.38-.38.89-.59,1.43-.59Z" style="fill: #d3d3d3; stroke-width: 0px;"/>
</svg>