<?xml version="1.0" encoding="UTF-8"?>
<svg id="Calque_1" data-name="Calque 1" xmlns="http://www.w3.org/2000/svg" version="1.1" viewBox="0 0 814 463">
  <defs>
    <style>
      .cls-1 {
        fill: #ffc1c0;
      }

      .cls-1, .cls-2 {
        stroke-width: 0px;
      }

      .cls-2 {
        fill: #333;
      }
    </style>
  </defs>
  <path class="cls-2" d="M45.3,463c-5.7,0-11.3-1-16.7-2.8l-25.6-8.9h-.7c-.2,0-.5,0-.7-.1s-.4-.2-.6-.4-.3-.4-.4-.6c0-.2-.1-.4-.1-.7v-15.3h88.4c-3.1-1.3-5.8-3.4-7.7-6.2s-2.9-6.1-2.9-9.5V17.7c0-4.5,1.8-8.8,5-12s7.5-5,12-4.9h624.2c2.2,0,4.4.4,6.5,1.3s3.9,2.1,5.5,3.7,2.8,3.4,3.7,5.5,1.3,4.3,1.3,6.5v400.8c0,3.4-1,6.6-2.9,9.5-1.9,2.8-4.5,5-7.7,6.2h87.3v15.3c0,.2,0,.5-.1.7,0,.2-.2.4-.4.6s-.3.3-.6.4c-.2,0-.4.1-.7.1h-.3c-2.1.8-16,5.7-24.9,8.9-4.9,1.7-10,2.6-15.2,2.6l-725.9.2h0Z"/>
  <rect class="cls-1" x="100.3" y="25.9" width="614.6" height="386.8"/>
</svg>