<?xml version="1.0" encoding="UTF-8"?>
<svg id="OBJECTS" xmlns="http://www.w3.org/2000/svg" version="1.1" viewBox="0 0 183.3 364.02">
  <g>
    <g>
      <path d="M22,12.64h140.29c11.59,0,21.01,9.41,21.01,21.01v308.74c0,11.59-9.41,21.01-21.01,21.01H22.01c-11.59,0-21.01-9.41-21.01-21.01V33.65c0-11.59,9.41-21,21-21Z" style="fill: #d3d3d3; stroke-width: 0px;"/>
      <path d="M22,11.27h140.29c11.59,0,21.01,9.41,21.01,21.01v308.74c0,11.59-9.41,21.01-21.01,21.01H22.01c-11.59,0-21.01-9.41-21.01-21.01V32.27c0-11.59,9.41-21,21-21Z" style="fill: #d3d3d3; stroke-width: 0px;"/>
      <path d="M22,.6h140.29c11.59,0,21.01,9.41,21.01,21.01v308.74c0,11.59-9.41,21.01-21.01,21.01H22.01c-11.59,0-21.01-9.41-21.01-21.01V21.61C1,10.01,10.41.6,22,.6Z" style="fill: #d3d3d3; stroke-width: 0px;"/>
      <path d="M22.01,1.6h140.29c11.04,0,20,8.96,20,20v308.74c0,11.04-8.96,20-20,20H22.01c-11.04,0-20.01-8.96-20.01-20.01V21.61C2,10.57,10.96,1.6,22.01,1.6Z" style="fill: #fff; stroke-width: 0px;"/>
      <path d="M103.61,356.91c0,.78-.63,1.42-1.42,1.42h-20.08c-.78,0-1.42-.63-1.42-1.42h0c0-.78.63-1.42,1.42-1.42h20.08c.78,0,1.42.63,1.42,1.42h0Z" style="fill: #d3d3d3; stroke-width: 0px;"/>
      <g>
        <g>
          <path d="M127.79,356.91c0,.41-.33.74-.74.74s-.74-.33-.74-.74.33-.74.74-.74.74.33.74.74Z" style="fill: #d3d3d3; stroke-width: 0px;"/>
          <path d="M133.05,356.91c0,.41-.33.74-.74.74s-.74-.33-.74-.74.33-.74.74-.74.74.33.74.74Z" style="fill: #d3d3d3; stroke-width: 0px;"/>
          <path d="M138.31,356.91c0,.41-.33.74-.74.74s-.74-.33-.74-.74.33-.74.74-.74.74.33.74.74Z" style="fill: #d3d3d3; stroke-width: 0px;"/>
          <path d="M143.57,356.91c0,.41-.33.74-.74.74s-.74-.33-.74-.74.33-.74.74-.74.74.33.74.74Z" style="fill: #d3d3d3; stroke-width: 0px;"/>
          <path d="M148.83,356.91c0,.41-.33.74-.74.74s-.74-.33-.74-.74.33-.74.74-.74.74.33.74.74Z" style="fill: #d3d3d3; stroke-width: 0px;"/>
        </g>
        <g>
          <path d="M36.95,356.91c0,.41-.33.74-.74.74s-.74-.33-.74-.74.33-.74.74-.74.74.33.74.74Z" style="fill: #d3d3d3; stroke-width: 0px;"/>
          <path d="M42.21,356.91c0,.41-.33.74-.74.74s-.74-.33-.74-.74.33-.74.74-.74.74.33.74.74Z" style="fill: #d3d3d3; stroke-width: 0px;"/>
          <path d="M47.47,356.91c0,.41-.33.74-.74.74s-.74-.33-.74-.74.33-.74.74-.74.74.33.74.74Z" style="fill: #d3d3d3; stroke-width: 0px;"/>
          <path d="M52.73,356.91c0,.41-.33.74-.74.74s-.74-.33-.74-.74.33-.74.74-.74.74.33.74.74Z" style="fill: #d3d3d3; stroke-width: 0px;"/>
          <path d="M57.99,356.91c0,.41-.33.74-.74.74s-.74-.33-.74-.74.33-.74.74-.74.74.33.74.74Z" style="fill: #d3d3d3; stroke-width: 0px;"/>
        </g>
      </g>
    </g>
    <g>
      <path d="M162.29,0H22.01C10.42,0,1,9.42,1,21v308.74c0,11.58,9.42,21.01,21.01,21.01h140.29c11.58,0,21.01-9.42,21.01-21.01V21c0-11.58-9.42-21-21.01-21ZM176.56,329.74c0,7.87-6.4,14.26-14.26,14.26H22.01c-7.87,0-14.26-6.4-14.26-14.26V21c0-7.86,6.4-14.26,14.26-14.26h23.18c1.56,0,2.82,1.26,2.82,2.82v6.61c0,3.67,2.98,6.65,6.65,6.65h74.99c3.67,0,6.64-2.98,6.64-6.65v-6.61c0-1.56,1.26-2.82,2.83-2.82h23.17c7.87,0,14.26,6.4,14.26,14.26v308.74Z" style="fill: #d3d3d3; stroke-width: 0px;"/>
      <path d="M108.74,14c0,.62-.5,1.12-1.12,1.12h-30.92c-.62,0-1.12-.5-1.12-1.12h0c0-.62.5-1.12,1.12-1.12h30.92c.62,0,1.12.5,1.12,1.12h0Z" style="fill: #d3d3d3; stroke-width: 0px;"/>
    </g>
  </g>
  <path d="M112.98,26.66h57.75c.14,0,.28.03.4.09.13.06.24.15.34.26.1.11.18.24.23.39.05.14.08.3.08.45v16.62c0,.16-.03.31-.08.45s-.13.27-.23.39c-.1.11-.21.2-.34.26-.13.06-.27.09-.4.09h-57.75c-.14,0-.28-.03-.4-.09-.13-.06-.24-.15-.34-.26-.1-.11-.18-.24-.23-.39s-.08-.3-.08-.45v-16.62c0-.16.03-.31.08-.45s.13-.28.23-.39c.1-.11.21-.2.34-.26.13-.06.27-.09.4-.09" style="fill: #d3d3d3; stroke-width: 0px;"/>
  <path d="M176.56,47.96H7.74v257.33h168.81V47.96Z" style="fill: #eee; stroke-width: 0px;"/>
  <path d="M22.24,183.17h70.03c.17,0,.33.03.49.1.15.06.3.16.41.28s.21.26.28.41c.06.16.1.32.1.49v17.93c0,.17-.03.33-.1.49-.06.16-.16.3-.28.42-.12.12-.26.21-.41.28-.16.06-.32.1-.49.1H22.24c-.17,0-.33-.03-.49-.1-.16-.07-.3-.16-.42-.28-.12-.12-.21-.26-.28-.42-.06-.15-.1-.32-.1-.49v-17.93c0-.17.03-.33.1-.49.06-.16.16-.3.28-.42.12-.12.26-.21.42-.28.16-.07.32-.1.49-.1" style="fill: #d3d3d3; stroke-width: 0px;"/>
  <path d="M23.42,326.94c.68,0,1.34.2,1.9.58.56.38,1,.91,1.26,1.53.26.62.33,1.31.19,1.97-.13.66-.46,1.27-.93,1.75-.48.48-1.09.8-1.75.93-.66.13-1.35.06-1.97-.19-.62-.26-1.16-.7-1.53-1.26-.38-.56-.58-1.22-.58-1.9,0-.9.36-1.77,1-2.41.64-.64,1.51-1,2.41-1Z" style="fill: #eee; stroke-width: 0px;"/>
  <path d="M23.42,332.91c1.41,0,2.56-1.15,2.56-2.56s-1.15-2.56-2.56-2.56-2.56,1.15-2.56,2.56,1.15,2.56,2.56,2.56Z" style="fill: none; stroke: #c4c4c4; stroke-miterlimit: 10; stroke-width: 1.71px;"/>
  <path d="M33.67,328.64c.34,0,.67.1.95.29.28.19.5.45.63.77.13.31.16.65.1.99-.07.33-.23.64-.47.87-.24.24-.54.4-.87.47-.33.07-.67.03-.99-.1-.31-.13-.58-.35-.77-.63-.19-.28-.29-.61-.29-.95,0-.45.18-.89.5-1.21.32-.32.75-.5,1.21-.5Z" style="fill: #9b9b9b; stroke-width: 0px;"/>
  <path d="M43.91,328.64c.34,0,.67.1.95.29.28.19.5.45.63.77.13.31.16.65.1.99-.07.33-.23.64-.47.87-.24.24-.54.4-.87.47-.33.07-.67.03-.99-.1-.31-.13-.58-.35-.77-.63-.19-.28-.29-.61-.29-.95,0-.45.18-.89.5-1.21.32-.32.75-.5,1.21-.5Z" style="fill: #9b9b9b; stroke-width: 0px;"/>
  <path d="M142.73,98.23H21.04v16.65h121.69v-16.65Z" style="fill: #d3d3d3; stroke-width: 0px;"/>
  <path d="M164.94,73.47H21.04v16.65h143.9v-16.65Z" style="fill: #d3d3d3; stroke-width: 0px;"/>
  <path d="M164.94,129.81H21.04v8.54h143.9v-8.54Z" style="fill: #d3d3d3; stroke-width: 0px;"/>
  <path d="M22.58,28.48c1.52,0,3,.45,4.27,1.3,1.26.84,2.25,2.04,2.83,3.45.58,1.4.73,2.95.44,4.44-.3,1.49-1.03,2.86-2.1,3.93-1.07,1.07-2.44,1.81-3.93,2.1-1.49.3-3.04.14-4.44-.44-1.4-.58-2.6-1.57-3.45-2.83-.84-1.26-1.3-2.75-1.3-4.27,0-2.04.81-3.99,2.25-5.43,1.44-1.44,3.4-2.25,5.43-2.25Z" style="fill: #d3d3d3; stroke-width: 0px;"/>
  <path d="M66.56,31.9h-31.17v8.54h31.17v-8.54Z" style="fill: #d3d3d3; stroke-width: 0px;"/>
  <path d="M164.94,144.75H21.04v8.54h143.9v-8.54Z" style="fill: #d3d3d3; stroke-width: 0px;"/>
  <path d="M115.83,159.7H21.04v8.54h94.79v-8.54Z" style="fill: #d3d3d3; stroke-width: 0px;"/>
  <path d="M21.46,224.32h140.63c.75,0,1.48.19,2.01.53s.83.8.83,1.28v88.63c0,.48-.3.94-.83,1.28s-1.25.53-2.01.53H22.84c-.75,0-1.48-.19-2.01-.53s-.83-.8-.83-1.28v-89.51c0-.25.15-.48.43-.66.27-.17.65-.27,1.03-.27Z" style="fill: #d3d3d3; stroke-width: 0px;"/>
</svg>