<?xml version="1.0" encoding="UTF-8"?>
<svg id="OBJECTS" xmlns="http://www.w3.org/2000/svg" version="1.1" viewBox="0 0 183.3 364">
  <defs>
    <style>
      .cls-1 {
        fill: #ffc1c0;
      }

      .cls-1, .cls-2, .cls-3, .cls-4, .cls-5 {
        stroke-width: 0px;
      }

      .cls-2 {
        fill: #3f3f40;
      }

      .cls-3 {
        fill: #272727;
      }

      .cls-4 {
        fill: #333;
      }

      .cls-5 {
        fill: #5d5c5c;
      }
    </style>
  </defs>
  <g>
    <path class="cls-3" d="M22,12.6h140.3c11.6,0,21,9.4,21,21v308.7c0,11.6-9.4,21-21,21H22c-11.6,0-21-9.4-21-21V33.7c0-11.6,9.4-21,21-21h0Z"/>
    <path class="cls-4" d="M22,11.3h140.3c11.6,0,21,9.4,21,21v308.7c0,11.6-9.4,21-21,21H22c-11.6,0-21-9.4-21-21V32.3c0-11.6,9.4-21,21-21Z"/>
    <path class="cls-2" d="M22,.6h140.3c11.6,0,21,9.4,21,21v308.7c0,11.6-9.4,21-21,21H22c-11.6,0-21-9.4-21-21V21.6C1,10,10.4.6,22,.6Z"/>
    <path class="cls-1" d="M22,1.6h140.3c11,0,20,9,20,20v308.7c0,11-9,20-20,20H22c-11,0-20-9-20-20V21.6C2,10.6,11,1.6,22,1.6Z"/>
    <path class="cls-3" d="M103.6,356.9c0,.8-.6,1.4-1.4,1.4h-20.1c-.8,0-1.4-.6-1.4-1.4h0c0-.8.6-1.4,1.4-1.4h20.1c.8,0,1.4.6,1.4,1.4h0Z"/>
    <g>
      <g>
        <path class="cls-3" d="M127.8,356.9c0,.4-.3.7-.7.7s-.7-.3-.7-.7.3-.7.7-.7.7.3.7.7Z"/>
        <path class="cls-3" d="M133.1,356.9c0,.4-.3.7-.7.7s-.7-.3-.7-.7.3-.7.7-.7.7.3.7.7Z"/>
        <path class="cls-3" d="M138.3,356.9c0,.4-.3.7-.7.7s-.7-.3-.7-.7.3-.7.7-.7.7.3.7.7Z"/>
        <path class="cls-3" d="M143.6,356.9c0,.4-.3.7-.7.7s-.7-.3-.7-.7.3-.7.7-.7.7.3.7.7Z"/>
        <path class="cls-3" d="M148.8,356.9c0,.4-.3.7-.7.7s-.7-.3-.7-.7.3-.7.7-.7.7.3.7.7Z"/>
      </g>
      <g>
        <path class="cls-3" d="M37,356.9c0,.4-.3.7-.7.7s-.7-.3-.7-.7.3-.7.7-.7.7.3.7.7Z"/>
        <path class="cls-3" d="M42.2,356.9c0,.4-.3.7-.7.7s-.7-.3-.7-.7.3-.7.7-.7.7.3.7.7Z"/>
        <path class="cls-3" d="M47.5,356.9c0,.4-.3.7-.7.7s-.7-.3-.7-.7.3-.7.7-.7.7.3.7.7Z"/>
        <path class="cls-3" d="M52.7,356.9c0,.4-.3.7-.7.7s-.7-.3-.7-.7.3-.7.7-.7.7.3.7.7Z"/>
        <path class="cls-3" d="M58,356.9c0,.4-.3.7-.7.7s-.7-.3-.7-.7.3-.7.7-.7.7.3.7.7Z"/>
      </g>
    </g>
  </g>
  <g>
    <path class="cls-5" d="M162.3,0H22C10.4,0,1,9.4,1,21v308.7c0,11.6,9.4,21,21,21h140.3c11.6,0,21-9.4,21-21V21c0-11.6-9.4-21-21-21h0ZM176.6,329.7c0,7.9-6.4,14.3-14.3,14.3H22c-7.9,0-14.3-6.4-14.3-14.3V21c0-7.9,6.4-14.3,14.3-14.3h23.2c1.6,0,2.8,1.3,2.8,2.8v6.6c0,3.7,3,6.6,6.7,6.6h75c3.7,0,6.6-3,6.6-6.6v-6.6c0-1.6,1.3-2.8,2.8-2.8h23.2c7.9,0,14.3,6.4,14.3,14.3v308.7h0Z"/>
    <path class="cls-3" d="M108.7,14c0,.6-.5,1.1-1.1,1.1h-30.9c-.6,0-1.1-.5-1.1-1.1h0c0-.6.5-1.1,1.1-1.1h30.9c.6,0,1.1.5,1.1,1.1h0Z"/>
  </g>
</svg>